<?xml version="1.0" encoding="utf-8"?>
<svg width="30px" height="30px" viewBox="0 0 30 30" version="1.1" xmlns:xlink="http://www.w3.org/1999/xlink" xmlns="http://www.w3.org/2000/svg">
  <desc>Created with Lunacy</desc>
  <g id="Icons/Filter">
    <g id="Icons/Filter">
      <path d="M0 0L30 0L30 30L0 30L0 0Z" id="Mask" fill="none" stroke="none" />
      <g id="Icons/Filter" transform="translate(4 5)">
        <path d="M0.499 0L20.501 0Q20.5501 0 20.5983 0.00958814Q20.6465 0.0191763 20.692 0.0379841Q20.7374 0.0567919 20.7782 0.0840967Q20.8191 0.111401 20.8538 0.146154Q20.8886 0.180906 20.9159 0.22177Q20.9432 0.262635 20.962 0.308041Q20.9808 0.353447 20.9904 0.40165Q21 0.449853 21 0.499L21 0.501Q21 0.550147 20.9904 0.59835Q20.9808 0.646553 20.962 0.691959Q20.9432 0.737365 20.9159 0.778229Q20.8886 0.819094 20.8538 0.853846Q20.8191 0.888599 20.7782 0.915903Q20.7374 0.943208 20.692 0.962016Q20.6465 0.980824 20.5983 0.990412Q20.5501 1 20.501 1L0.499 1Q0.449853 1 0.40165 0.990412Q0.353447 0.980824 0.308041 0.962016Q0.262635 0.943208 0.22177 0.915903Q0.180906 0.888599 0.146154 0.853846Q0.111401 0.819094 0.0840967 0.778229Q0.0567919 0.737365 0.0379841 0.691959Q0.0191763 0.646553 0.00958814 0.59835Q0 0.550147 0 0.501L0 0.499Q0 0.449853 0.00958814 0.40165Q0.0191763 0.353447 0.0379841 0.308041Q0.0567919 0.262635 0.0840967 0.22177Q0.111401 0.180906 0.146154 0.146154Q0.180906 0.111401 0.22177 0.0840967Q0.262635 0.0567919 0.308041 0.0379841Q0.353447 0.0191763 0.40165 0.00958814Q0.449853 0 0.499 0Z" transform="translate(0 2)" id="Rectangle-4" fill="#60605B" stroke="none" />
        <path d="M2.5 5C1.11929 5 0 3.88071 0 2.5C0 1.11929 1.11929 0 2.5 0C3.88071 0 5 1.11929 5 2.5C5 3.88071 3.88071 5 2.5 5Z" transform="translate(12 0)" id="Oval-Copy-2" fill="#00A9E7" stroke="none" />
        <path d="M0.499 0L20.501 0Q20.5501 0 20.5983 0.00958814Q20.6465 0.0191763 20.692 0.0379841Q20.7374 0.0567919 20.7782 0.0840967Q20.8191 0.111401 20.8538 0.146154Q20.8886 0.180906 20.9159 0.22177Q20.9432 0.262635 20.962 0.308041Q20.9808 0.353447 20.9904 0.40165Q21 0.449853 21 0.499L21 0.501Q21 0.550147 20.9904 0.59835Q20.9808 0.646553 20.962 0.691959Q20.9432 0.737365 20.9159 0.778229Q20.8886 0.819094 20.8538 0.853846Q20.8191 0.888599 20.7782 0.915903Q20.7374 0.943208 20.692 0.962016Q20.6465 0.980824 20.5983 0.990412Q20.5501 1 20.501 1L0.499 1Q0.449853 1 0.40165 0.990412Q0.353447 0.980824 0.308041 0.962016Q0.262635 0.943208 0.22177 0.915903Q0.180906 0.888599 0.146154 0.853846Q0.111401 0.819094 0.0840967 0.778229Q0.0567919 0.737365 0.0379841 0.691959Q0.0191763 0.646553 0.00958814 0.59835Q0 0.550147 0 0.501L0 0.499Q0 0.449853 0.00958814 0.40165Q0.0191763 0.353447 0.0379841 0.308041Q0.0567919 0.262635 0.0840967 0.22177Q0.111401 0.180906 0.146154 0.146154Q0.180906 0.111401 0.22177 0.0840967Q0.262635 0.0567919 0.308041 0.0379841Q0.353447 0.0191763 0.40165 0.00958814Q0.449853 0 0.499 0Z" transform="translate(0 9)" id="Rectangle-4" fill="#60605B" stroke="none" />
        <path d="M2.5 5C1.11929 5 0 3.88071 0 2.5C0 1.11929 1.11929 0 2.5 0C3.88071 0 5 1.11929 5 2.5C5 3.88071 3.88071 5 2.5 5Z" transform="translate(3 7)" id="Oval-Copy-2" fill="#00A9E7" stroke="none" />
        <path d="M0.499 0L20.501 0Q20.5501 0 20.5983 0.00958814Q20.6465 0.0191763 20.692 0.0379841Q20.7374 0.0567919 20.7782 0.0840967Q20.8191 0.111401 20.8538 0.146154Q20.8886 0.180906 20.9159 0.22177Q20.9432 0.262635 20.962 0.308041Q20.9808 0.353447 20.9904 0.40165Q21 0.449853 21 0.499L21 0.501Q21 0.550147 20.9904 0.59835Q20.9808 0.646553 20.962 0.691959Q20.9432 0.737365 20.9159 0.778229Q20.8886 0.819094 20.8538 0.853846Q20.8191 0.888599 20.7782 0.915903Q20.7374 0.943208 20.692 0.962016Q20.6465 0.980824 20.5983 0.990412Q20.5501 1 20.501 1L0.499 1Q0.449853 1 0.40165 0.990412Q0.353447 0.980824 0.308041 0.962016Q0.262635 0.943208 0.22177 0.915903Q0.180906 0.888599 0.146154 0.853846Q0.111401 0.819094 0.0840967 0.778229Q0.0567919 0.737365 0.0379841 0.691959Q0.0191763 0.646553 0.00958814 0.59835Q0 0.550147 0 0.501L0 0.499Q0 0.449853 0.00958814 0.40165Q0.0191763 0.353447 0.0379841 0.308041Q0.0567919 0.262635 0.0840967 0.22177Q0.111401 0.180906 0.146154 0.146154Q0.180906 0.111401 0.22177 0.0840967Q0.262635 0.0567919 0.308041 0.0379841Q0.353447 0.0191763 0.40165 0.00958814Q0.449853 0 0.499 0Z" transform="translate(0 16)" id="Rectangle-4" fill="#60605B" stroke="none" />
        <path d="M2.5 5C1.11929 5 0 3.88071 0 2.5C0 1.11929 1.11929 0 2.5 0C3.88071 0 5 1.11929 5 2.5C5 3.88071 3.88071 5 2.5 5Z" transform="translate(12 14)" id="Oval-Copy-2" fill="#00A9E7" stroke="none" />
      </g>
    </g>
  </g>
</svg>