<?xml version="1.0" encoding="utf-8"?>
<svg width="18px" height="2px" viewBox="0 0 18 2" version="1.1" xmlns:xlink="http://www.w3.org/1999/xlink" xmlns="http://www.w3.org/2000/svg">
  <desc>Created with Lunacy</desc>
  <path d="M8.26757e-17 0.876L8.26757e-17 0.249Q8.26757e-17 0.199471 0.018954 0.153712Q0.037908 0.107953 0.0729304 0.0729304Q0.107953 0.037908 0.153712 0.018954Q0.199471 -3.53266e-14 0.249 -3.5301e-14L17.126 -2.65569e-14Q17.2121 -2.65123e-14 17.2965 0.0167937Q17.3809 0.0335873 17.4605 0.0665293Q17.54 0.0994712 17.6116 0.147296Q17.6831 0.19512 17.744 0.255989Q17.8049 0.316857 17.8527 0.388432Q17.9005 0.460006 17.9335 0.539535Q17.9664 0.619063 17.9832 0.703491Q18 0.787918 18 0.874L18 1.501Q18 1.55053 17.981 1.59629Q17.9621 1.64205 17.9271 1.67707Q17.892 1.71209 17.8463 1.73105Q17.8005 1.75 17.751 1.75L0.874 1.75Q0.787918 1.75 0.703491 1.73321Q0.619063 1.71641 0.539535 1.68347Q0.460006 1.65053 0.388432 1.6027Q0.316857 1.55488 0.255989 1.49401Q0.19512 1.43314 0.147296 1.36157Q0.0994712 1.28999 0.0665293 1.21047Q0.0335873 1.13094 0.0167937 1.04651Q8.26757e-17 0.962081 8.26757e-17 0.876Z" id="Line-3-Copy-7" fill="#292929" stroke="none" />
</svg>