<?xml version="1.0" encoding="utf-8"?>
<!-- Generator: Adobe Illustrator 25.0.0, SVG Export Plug-In . SVG Version: 6.00 Build 0)  -->
<svg version="1.1" id="Layer_1" xmlns="http://www.w3.org/2000/svg" xmlns:xlink="http://www.w3.org/1999/xlink" x="0px" y="0px"
	 viewBox="0 0 27.5 27.5" style="enable-background:new 0 0 27.5 27.5;" xml:space="preserve">
<style type="text/css">
	.st0{clip-path:url(#SVGID_2_);}
	.st1{fill:#292929;}
</style>
<desc>Created with Lunacy</desc>
<g id="Group">
	<g id="Oval-9">
		<g>
			<defs>
				<circle id="SVGID_1_" cx="13.8" cy="13.8" r="12"/>
			</defs>
			<clipPath id="SVGID_2_">
				<use xlink:href="#SVGID_1_"  style="overflow:visible;"/>
			</clipPath>
			<g class="st0">
				<g>
					<g id="path_1">
						<path class="st1" d="M13.8,27.5C6.2,27.5,0,21.3,0,13.8C0,6.2,6.2,0,13.8,0c7.6,0,13.8,6.2,13.8,13.8
							C27.5,21.3,21.3,27.5,13.8,27.5z M13.8,3.5C8.1,3.5,3.5,8.1,3.5,13.8C3.5,19.4,8.1,24,13.8,24C19.4,24,24,19.4,24,13.8
							C24,8.1,19.4,3.5,13.8,3.5z"/>
					</g>
				</g>
			</g>
		</g>
	</g>
	<g id="Path-2">
		<path class="st1" d="M12.3,16.5l4.7-6.3c0-0.1,0.1-0.1,0.1-0.1c0,0,0.1-0.1,0.2-0.1c0.1,0,0.1-0.1,0.2-0.1c0.1,0,0.1,0,0.2,0
			c0.1,0,0.1,0,0.2,0c0.1,0,0.1,0,0.2,0c0.1,0,0.1,0,0.2,0.1c0.1,0,0.1,0.1,0.2,0.1l0.6,0.4l-5.8,7.8c0,0,0,0.1-0.1,0.1
			c0,0,0,0.1-0.1,0.1c0,0-0.1,0-0.1,0.1c0,0-0.1,0-0.1,0.1c0,0-0.1,0-0.1,0c0,0-0.1,0-0.1,0c0,0-0.1,0-0.1,0c0,0-0.1,0-0.1,0
			c0,0-0.1,0-0.1,0c0,0-0.1,0-0.1,0s-0.1,0-0.1,0c0,0-0.1,0-0.1,0c0,0-0.1,0-0.1,0c0,0-0.1,0-0.1-0.1c0,0-0.1,0-0.1-0.1
			s-0.1,0-0.1-0.1l-3.9-3.9l0.5-0.5c0,0,0.1-0.1,0.2-0.1c0.1,0,0.1-0.1,0.2-0.1s0.1,0,0.2-0.1c0.1,0,0.1,0,0.2,0c0.1,0,0.1,0,0.2,0
			c0.1,0,0.1,0,0.2,0.1c0.1,0,0.1,0.1,0.2,0.1c0.1,0,0.1,0.1,0.2,0.1L12.3,16.5z"/>
	</g>
</g>
</svg>
