<?xml version="1.0" encoding="utf-8"?>
<svg width="20px" height="14px" viewBox="0 0 20 14" version="1.1" xmlns:xlink="http://www.w3.org/1999/xlink" xmlns="http://www.w3.org/2000/svg">
  <desc>Created with Lunacy</desc>
  <g id="Group">
    <path d="M0 0.90725L0 0.249Q0 0.199471 0.018954 0.153712Q0.037908 0.107953 0.0729304 0.0729304Q0.107953 0.037908 0.153712 0.018954Q0.199471 0 0.249 0L19.0322 0Q19.1214 0 19.2089 0.0173941Q19.2963 0.0347882 19.3787 0.068908Q19.461 0.103028 19.5352 0.152562Q19.6093 0.202096 19.6724 0.265142Q19.7354 0.328187 19.7849 0.40232Q19.8345 0.476453 19.8686 0.558826Q19.9027 0.641198 19.9201 0.728644Q19.9375 0.816091 19.9375 0.90525L19.9375 1.5635Q19.9375 1.61303 19.9185 1.65879Q19.8996 1.70455 19.8646 1.73957Q19.8295 1.77459 19.7838 1.79355Q19.738 1.8125 19.6885 1.8125L0.90525 1.8125Q0.816091 1.8125 0.728644 1.79511Q0.641198 1.77771 0.558826 1.74359Q0.476453 1.70947 0.40232 1.65994Q0.328187 1.6104 0.265142 1.54736Q0.202096 1.48431 0.152562 1.41018Q0.103028 1.33605 0.068908 1.25367Q0.0347882 1.1713 0.0173941 1.08386Q0 0.996409 0 0.90725L0 0.90725Z" transform="translate(0 12)" id="Line-2" fill="#292929" stroke="none" />
    <path d="M0 1.5635L0 0.90525Q0 0.816091 0.0173941 0.728644Q0.0347882 0.641198 0.068908 0.558826Q0.103028 0.476453 0.152562 0.40232Q0.202096 0.328187 0.265142 0.265142Q0.328187 0.202096 0.40232 0.152562Q0.476453 0.103028 0.558826 0.068908Q0.641198 0.0347882 0.728644 0.0173941Q0.816091 0 0.90525 0L19.6885 0Q19.738 0 19.7838 0.018954Q19.8295 0.037908 19.8646 0.0729304Q19.8996 0.107953 19.9185 0.153712Q19.9375 0.199471 19.9375 0.249L19.9375 0.90725Q19.9375 0.996409 19.9201 1.08386Q19.9027 1.1713 19.8686 1.25367Q19.8345 1.33605 19.7849 1.41018Q19.7354 1.48431 19.6724 1.54736Q19.6093 1.6104 19.5352 1.65994Q19.461 1.70947 19.3787 1.74359Q19.2963 1.77771 19.2089 1.79511Q19.1214 1.8125 19.0322 1.8125L0.249 1.8125Q0.199471 1.8125 0.153712 1.79355Q0.107953 1.77459 0.0729304 1.73957Q0.037908 1.70455 0.018954 1.65879Q0 1.61303 0 1.5635Z" transform="translate(0 6)" id="Line-2-Copy" fill="#292929" stroke="none" />
    <path d="M0 0.90725L0 0.249Q0 0.199471 0.018954 0.153712Q0.037908 0.107953 0.0729304 0.0729304Q0.107953 0.037908 0.153712 0.018954Q0.199471 0 0.249 0L19.0322 0Q19.1214 0 19.2089 0.0173941Q19.2963 0.0347882 19.3787 0.068908Q19.461 0.103028 19.5352 0.152562Q19.6093 0.202096 19.6724 0.265142Q19.7354 0.328187 19.7849 0.40232Q19.8345 0.476453 19.8686 0.558826Q19.9027 0.641198 19.9201 0.728644Q19.9375 0.816091 19.9375 0.90525L19.9375 1.5635Q19.9375 1.61303 19.9185 1.65879Q19.8996 1.70455 19.8646 1.73957Q19.8295 1.77459 19.7838 1.79355Q19.738 1.8125 19.6885 1.8125L0.90525 1.8125Q0.816091 1.8125 0.728644 1.79511Q0.641198 1.77771 0.558826 1.74359Q0.476453 1.70947 0.40232 1.65994Q0.328187 1.6104 0.265142 1.54736Q0.202096 1.48431 0.152562 1.41018Q0.103028 1.33605 0.068908 1.25367Q0.0347882 1.1713 0.0173941 1.08386Q0 0.996409 0 0.90725L0 0.90725Z" id="Line-2-Copy-2" fill="#292929" stroke="none" />
  </g>
</svg>