<?xml version="1.0" encoding="utf-8"?>
<svg width="30px" height="30px" viewBox="0 0 30 30" version="1.1" xmlns:xlink="http://www.w3.org/1999/xlink" xmlns="http://www.w3.org/2000/svg">
  <desc>Created with Lunacy</desc>
  <g id="Icons/Interface/Avatar/Active">
    <g id="Icon" transform="translate(5 5)">
      <g id="Icon">
        <path d="M18.9781 9.48952C18.9781 4.24857 14.7295 0 9.48952 0C4.24857 0 0 4.24857 0 9.48952C0 12.301 1.22952 14.82 3.17333 16.5571C4.28095 14.1914 6.69238 12.5514 9.48952 12.5514C12.2867 12.5514 14.6981 14.1914 15.8057 16.5571C17.7486 14.82 18.9781 12.301 18.9781 9.48952" transform="translate(0.60519195 0.47609523)" id="Container-Fill" fill="#00A9E7" stroke="none" />
        <path d="M6.31619 0C3.5181 0 1.10762 1.64095 0 4.00571C1.6781 5.50667 3.88667 6.42762 6.31619 6.42762C8.74476 6.42762 10.9533 5.50667 12.6324 4.00571C11.5248 1.64 9.11333 0 6.31619 0" transform="translate(3.7786205 13.027333)" id="Shirt-Fill" fill="#FFC836" stroke="none" />
        <path d="M13.9515 4.61247C12.7026 1.82208 10.0098 0 7 0C3.99008 0 1.29787 1.82221 0.0485026 4.61239C-0.0476603 4.82715 0.00220051 5.08246 0.171181 5.24056C2.04361 6.99243 4.44889 7.97905 7 7.97905C9.55011 7.97905 11.9553 6.99248 13.8287 5.24066C13.9978 5.0826 14.0477 4.82727 13.9515 4.61247ZM1.15291 4.70647C2.29779 2.4961 4.52427 1.07424 7 1.07424C9.47563 1.07424 11.7025 2.49596 12.8471 4.70633C11.2064 6.11732 9.16168 6.90481 7 6.90481C4.83744 6.90481 2.79269 6.11734 1.15291 4.70647Z" transform="translate(3 12)" id="Shirt-Stroke" fill="#60605B" fill-rule="evenodd" stroke="none" />
        <path d="M9.98857 0C4.47227 0 0 4.47258 0 9.98952C0 15.5065 4.47227 19.979 9.98857 19.979C15.5057 19.979 19.9781 15.5066 19.9781 9.98952C19.9781 4.47243 15.5057 0 9.98857 0ZM9.98857 18.979C5.02457 18.979 1 14.9542 1 9.98952C1 5.02485 5.02457 1 9.98857 1C14.9534 1 18.9781 5.02471 18.9781 9.98952C18.9781 14.9543 14.9534 18.979 9.98857 18.979Z" id="Container-Stroke" fill="#60605B" fill-rule="evenodd" stroke="none" />
        <path d="M0 5.21238C0 8.08952 2.33333 10.4238 5.21143 10.4238C8.08952 10.4238 10.4229 8.08952 10.4229 5.21238C10.4229 2.33429 8.08952 0 5.21143 0C2.33333 0 0 2.33429 0 5.21238" transform="translate(4.882811 4.3560953)" id="Head-Fill" fill="#FFFFFF" stroke="none" />
        <path d="M6 0C2.68655 0 0 2.68723 0 6.001C0 9.31394 2.68672 12.001 6 12.001C9.31328 12.001 12 9.31394 12 6.001C12 2.68723 9.31345 0 6 0ZM6 10.9505C3.26694 10.9505 1.05053 8.73378 1.05053 6.001C1.05053 3.26736 3.2668 1.05053 6 1.05053C8.7332 1.05053 10.9495 3.26736 10.9495 6.001C10.9495 8.73378 8.73306 10.9505 6 10.9505Z" transform="translate(4 3.7114046)" id="Head-Stroke" fill="#60605B" fill-rule="evenodd" stroke="none" />
        <path d="M0.0469964 0.715483C-0.067722 0.466567 0.0347968 0.168802 0.275979 0.050405C0.51716 -0.0679919 0.805674 0.0378142 0.920393 0.28673C1.24043 0.981136 1.84345 1.41182 2.49908 1.41182C3.15602 1.41182 3.7596 0.980753 4.07942 0.285224C4.19393 0.0362045 4.48236 -0.0698627 4.72364 0.0483159C4.96492 0.166494 5.06769 0.464167 4.95319 0.713186C4.47944 1.74345 3.54614 2.41 2.49908 2.41C1.45344 2.41 0.521041 1.74406 0.0469964 0.715483Z" transform="translate(7.5 10.5)" id="Smile" fill="#60605B" stroke="none" />
      </g>
    </g>
  </g>
</svg>