<?xml version="1.0" encoding="utf-8"?>
<!-- Generator: Adobe Illustrator 25.0.0, SVG Export Plug-In . SVG Version: 6.00 Build 0)  -->
<svg version="1.1" id="Layer_1" xmlns="http://www.w3.org/2000/svg" xmlns:xlink="http://www.w3.org/1999/xlink" x="0px" y="0px"
	 viewBox="0 0 32 32" style="enable-background:new 0 0 32 32;" xml:space="preserve">
<style type="text/css">
	.st0{clip-path:url(#SVGID_2_);}
	.st1{fill:#292929;}
</style>
<desc>Created with Lunacy</desc>
<g>
	<defs>
		<rect id="SVGID_1_" width="32" height="32"/>
	</defs>
	<clipPath id="SVGID_2_">
		<use xlink:href="#SVGID_1_"  style="overflow:visible;"/>
	</clipPath>
	<g id="Open-Link_x2F_Black" class="st0">
		<path id="Path-18" class="st1" d="M18,7v0.6c0,0.1-0.1,0.2-0.2,0.2c-1.5,0-9.8,0-9.8,0C7.9,7.9,7.9,7.9,7.9,8v16
			c0,0.1,0.1,0.1,0.1,0.1h16c0.1,0,0.1-0.1,0.1-0.1V13.2c0-0.1,0.1-0.2,0.2-0.2H25c0.5,0,0.9,0.4,0.9,0.9c0,2.6,0,10.1,0,10.1
			c0,1-0.8,1.9-1.9,1.9H8c-1,0-1.9-0.8-1.9-1.9V8C6.1,7,7,6.1,8,6.1h9.1C17.6,6.1,18,6.5,18,7z"/>
		<g id="Group" transform="matrix(0.70710677 -0.70710677 0.70710677 0.70710677 10.375244 15.817139)">
			<path id="Path-3" class="st1" d="M16.7,1.1l1.2-1.2c2.3,2.3,3.6,3.6,3.6,3.6c0.3,0.3,0.3,0.9,0,1.2l-2.4,2.4
				C18.5,7.8,18,8.3,18,8.3l-1.2-1.2l3-3L16.7,1.1z"/>
			<path id="Path-7" class="st1" d="M19.6,4.2L19.6,4.2c0,0.1,0,0.1,0,0.2c0,0.1,0,0.1-0.1,0.2c0,0.1,0,0.1-0.1,0.2
				c0,0-0.1,0.1-0.1,0.1c0,0-0.1,0.1-0.1,0.1c0,0-0.1,0.1-0.2,0.1C19,5,19,5,18.9,5c-0.1,0-0.1,0-0.2,0L0.9,4.9c-0.1,0-0.1,0-0.2,0
				c-0.1,0-0.1,0-0.2-0.1c-0.1,0-0.1,0-0.2-0.1S0.3,4.7,0.3,4.6c0,0-0.1-0.1-0.1-0.1c0,0-0.1-0.1-0.1-0.2c0-0.1,0-0.1,0-0.2
				C0,4.1,0,4,0,4l0-0.6c0,0,0-0.1,0-0.1c0,0,0-0.1,0.1-0.1s0.1,0,0.1-0.1c0,0,0.1,0,0.1,0l18.5,0.2c0.1,0,0.1,0,0.2,0
				c0.1,0,0.1,0,0.2,0.1c0.1,0,0.1,0,0.2,0.1c0,0,0.1,0.1,0.1,0.1c0,0,0.1,0.1,0.1,0.1c0,0,0.1,0.1,0.1,0.2c0,0.1,0,0.1,0,0.2
				C19.6,4.1,19.6,4.1,19.6,4.2z"/>
		</g>
	</g>
</g>
</svg>
