<?xml version="1.0" encoding="utf-8"?>
<svg width="9px" height="9px" viewBox="0 0 9 9" version="1.1" xmlns:xlink="http://www.w3.org/1999/xlink" xmlns="http://www.w3.org/2000/svg">
  <desc>Created with Lunacy</desc>
  <path d="M1.501 0L1.499 0Q1.42536 0 1.35207 0.00721809Q1.27879 0.0144362 1.20656 0.0288029Q1.13433 0.0431695 1.06386 0.0645464Q0.993393 0.0859233 0.925357 0.114105Q0.857322 0.142286 0.792376 0.177Q0.727431 0.211714 0.6662 0.252627Q0.60497 0.29354 0.548045 0.340257Q0.491119 0.386975 0.439047 0.439047Q0.386975 0.491119 0.340257 0.548044Q0.29354 0.60497 0.252627 0.6662Q0.211714 0.727431 0.177 0.792376Q0.142286 0.857322 0.114105 0.925357Q0.0859233 0.993393 0.0645464 1.06386Q0.0431695 1.13433 0.0288029 1.20656Q0.0144362 1.27879 0.00721809 1.35207Q0 1.42536 0 1.499L0 7.501Q0 7.57464 0.00721809 7.64793Q0.0144362 7.72121 0.0288029 7.79344Q0.0431695 7.86567 0.0645464 7.93614Q0.0859233 8.00661 0.114105 8.07464Q0.142286 8.14268 0.177 8.20762Q0.211714 8.27257 0.252627 8.3338Q0.29354 8.39503 0.340257 8.45195Q0.386975 8.50888 0.439047 8.56095Q0.491119 8.61302 0.548044 8.65974Q0.60497 8.70646 0.6662 8.74737Q0.727431 8.78829 0.792376 8.823Q0.857322 8.85771 0.925357 8.88589Q0.993393 8.91408 1.06386 8.93545Q1.13433 8.95683 1.20656 8.9712Q1.27879 8.98556 1.35207 8.99278Q1.42536 9 1.499 9L1.501 9Q1.57464 9 1.64793 8.99278Q1.72121 8.98556 1.79344 8.9712Q1.86567 8.95683 1.93614 8.93545Q2.00661 8.91408 2.07464 8.88589Q2.14268 8.85771 2.20762 8.823Q2.27257 8.78829 2.3338 8.74737Q2.39503 8.70646 2.45196 8.65974Q2.50888 8.61302 2.56095 8.56095Q2.61303 8.50888 2.65974 8.45195Q2.70646 8.39503 2.74737 8.3338Q2.78829 8.27257 2.823 8.20762Q2.85771 8.14268 2.8859 8.07464Q2.91408 8.00661 2.93545 7.93614Q2.95683 7.86567 2.9712 7.79344Q2.98556 7.72121 2.99278 7.64793Q3 7.57464 3 7.501L3 1.499Q3 1.42536 2.99278 1.35207Q2.98556 1.27879 2.9712 1.20656Q2.95683 1.13433 2.93545 1.06386Q2.91408 0.993393 2.8859 0.925357Q2.85771 0.857322 2.823 0.792376Q2.78829 0.727431 2.74737 0.6662Q2.70646 0.60497 2.65974 0.548044Q2.61303 0.491119 2.56095 0.439047Q2.50888 0.386975 2.45196 0.340257Q2.39503 0.29354 2.3338 0.252627Q2.27257 0.211714 2.20762 0.177Q2.14268 0.142286 2.07464 0.114105Q2.00661 0.0859233 1.93614 0.0645464Q1.86567 0.0431695 1.79344 0.0288029Q1.72121 0.0144362 1.64793 0.00721809Q1.57464 0 1.501 0ZM7.501 0L7.499 0Q7.42536 0 7.35207 0.00721809Q7.27879 0.0144362 7.20656 0.0288029Q7.13433 0.0431695 7.06386 0.0645464Q6.99339 0.0859233 6.92536 0.114105Q6.85732 0.142286 6.79238 0.177Q6.72743 0.211714 6.6662 0.252627Q6.60497 0.29354 6.54804 0.340257Q6.49112 0.386975 6.43905 0.439047Q6.38697 0.491119 6.34026 0.548044Q6.29354 0.60497 6.25263 0.6662Q6.21171 0.727431 6.177 0.792376Q6.14229 0.857322 6.1141 0.925357Q6.08592 0.993393 6.06455 1.06386Q6.04317 1.13433 6.0288 1.20656Q6.01444 1.27879 6.00722 1.35207Q6 1.42536 6 1.499L6 7.501Q6 7.57464 6.00722 7.64793Q6.01444 7.72121 6.0288 7.79344Q6.04317 7.86567 6.06455 7.93614Q6.08592 8.00661 6.1141 8.07464Q6.14229 8.14268 6.177 8.20762Q6.21171 8.27257 6.25263 8.3338Q6.29354 8.39503 6.34026 8.45195Q6.38697 8.50888 6.43905 8.56095Q6.49112 8.61302 6.54804 8.65974Q6.60497 8.70646 6.6662 8.74737Q6.72743 8.78829 6.79238 8.823Q6.85732 8.85771 6.92536 8.88589Q6.99339 8.91408 7.06386 8.93545Q7.13433 8.95683 7.20656 8.9712Q7.27879 8.98556 7.35207 8.99278Q7.42536 9 7.499 9L7.501 9Q7.57464 9 7.64793 8.99278Q7.72121 8.98556 7.79344 8.9712Q7.86567 8.95683 7.93614 8.93545Q8.00661 8.91408 8.07464 8.88589Q8.14268 8.85771 8.20762 8.823Q8.27257 8.78829 8.3338 8.74737Q8.39503 8.70646 8.45195 8.65974Q8.50888 8.61302 8.56095 8.56095Q8.61302 8.50888 8.65974 8.45195Q8.70646 8.39503 8.74737 8.3338Q8.78829 8.27257 8.823 8.20762Q8.85771 8.14268 8.88589 8.07464Q8.91408 8.00661 8.93545 7.93614Q8.95683 7.86567 8.9712 7.79344Q8.98556 7.72121 8.99278 7.64793Q9 7.57464 9 7.501L9 1.499Q9 1.42536 8.99278 1.35207Q8.98556 1.27879 8.9712 1.20656Q8.95683 1.13433 8.93545 1.06386Q8.91408 0.993393 8.88589 0.925357Q8.85771 0.857322 8.823 0.792376Q8.78829 0.727431 8.74737 0.6662Q8.70646 0.60497 8.65974 0.548044Q8.61302 0.491119 8.56095 0.439047Q8.50888 0.386975 8.45195 0.340257Q8.39503 0.29354 8.3338 0.252627Q8.27257 0.211714 8.20762 0.177Q8.14268 0.142286 8.07464 0.114105Q8.00661 0.0859233 7.93614 0.0645464Q7.86567 0.0431695 7.79344 0.0288029Q7.72121 0.0144362 7.64793 0.00721809Q7.57464 0 7.501 0Z" id="Rectangle-8" fill="#292929" fill-rule="evenodd" stroke="none" />
</svg>