<?xml version="1.0" encoding="UTF-8"?>
<svg width="31px" height="26px" viewBox="0 0 31 26" version="1.1" xmlns="http://www.w3.org/2000/svg" xmlns:xlink="http://www.w3.org/1999/xlink">
    <title>Icon_Cart_Solid</title>
    <g id="Page-1" stroke="none" stroke-width="1" fill="none" fill-rule="evenodd">
        <g id="Artboard" transform="translate(2.000000, 1.000000)">
            <g id="Icon_Cart_Solid" transform="translate(-1.000000, 0.000000)">
                <polyline id="Stroke-1" stroke="#000C21" stroke-width="1.14705882" stroke-linecap="round" stroke-linejoin="round" points="0 0 4.92855425 0 8.5310187 18.6961177 24.3981801 18.6961177"></polyline>
                <path d="M27.0501654,21.347997 C27.0501654,22.8125413 25.8628833,24 24.3981625,24 C22.9336182,24 21.7463361,22.8125413 21.7463361,21.347997 C21.7463361,19.8832762 22.9336182,18.6959941 24.3981625,18.6959941 C25.8628833,18.6959941 27.0501654,19.8832762 27.0501654,21.347997 Z" id="Stroke-3" stroke="#000C21" stroke-width="1.14705882" stroke-linecap="round" stroke-linejoin="round"></path>
                <path d="M12.7022766,21.347997 C12.7022766,22.8125413 11.5149944,24 10.0502736,24 C8.58572939,24 7.39862384,22.8125413 7.39862384,21.347997 C7.39862384,19.8832762 8.58572939,18.6959941 10.0502736,18.6959941 C11.5149944,18.6959941 12.7022766,19.8832762 12.7022766,21.347997 Z" id="Stroke-5" stroke="#000C21" stroke-width="1.14705882" stroke-linecap="round" stroke-linejoin="round"></path>
                <g id="Group-10" transform="translate(5.618425, 3.580054)">
                    <polyline id="Fill-7" fill="#000C21" fill-rule="nonzero" points="2.4144759 12.5303034 21.2335072 12.5303034 23.679418 0 0 0"></polyline>
                    <polyline id="Stroke-9" stroke="#000C21" stroke-width="1.14705882" stroke-linecap="round" stroke-linejoin="round" points="2.4144759 12.5303034 21.2335072 12.5303034 23.679418 0 0 0"></polyline>
                </g>
            </g>
        </g>
    </g>
</svg>