<?xml version="1.0" encoding="utf-8"?>
<!-- Generator: Adobe Illustrator 25.0.0, SVG Export Plug-In . SVG Version: 6.00 Build 0)  -->
<svg version="1.1" id="Layer_1" xmlns="http://www.w3.org/2000/svg" xmlns:xlink="http://www.w3.org/1999/xlink" x="0px" y="0px"
	 viewBox="0 0 29 29" style="enable-background:new 0 0 29 29;" xml:space="preserve">
<style type="text/css">
	.st0{fill:none;}
	.st1{clip-path:url(#SVGID_2_);}
	.st2{fill:#00A9E7;}
	.st3{fill-rule:evenodd;clip-rule:evenodd;fill:#60605B;}
	.st4{fill:#60605B;}
</style>
<desc>Created with Lunacy</desc>
<g id="Icon_x2F_Locate">
	<g id="Icons_x2F_Reload_1_">
		<path id="Mask" class="st0" d="M0,0h29v29H0V0z"/>
		<g>
			<defs>
				<rect id="SVGID_1_" width="28.5" height="28.5"/>
			</defs>
			<clipPath id="SVGID_2_">
				<use xlink:href="#SVGID_1_"  style="overflow:visible;"/>
			</clipPath>
			<g class="st1">
				<g id="Icons_x2F_Reload" transform="translate(4.833333 5.7999997)">
					<path id="Oval-Copy-2" class="st2" d="M9.7,12.9c-2.3,0-4.2-1.9-4.2-4.2c0-2.3,1.9-4.2,4.2-4.2c2.3,0,4.2,1.9,4.2,4.2
						C13.9,11,12,12.9,9.7,12.9z"/>
					<path id="Combined-Shape" class="st3" d="M21.2,3.8C18.5-2.6,11.2-5.6,4.8-2.9C-1.6-0.2-4.6,7.2-1.9,13.6
						C0.8,20,8.2,23,14.6,20.3l0.7,1.5C8,24.9-0.4,21.5-3.4,14.3C-6.5,7-3.1-1.3,4.1-4.4c7.2-3.1,15.6,0.3,18.7,7.5L21.2,3.8
						L21.2,3.8z"/>
					<path id="Rectangle-2" class="st3" d="M23.1-2.2L23.1-2.2c-0.1,0-0.1,0-0.2,0c-0.1,0-0.1,0-0.2,0c-0.1,0-0.1,0-0.1,0.1
						c0,0-0.1,0.1-0.1,0.1c0,0-0.1,0.1-0.1,0.1c0,0-0.1,0.1-0.1,0.1c0,0.1,0,0.1,0,0.2c0,0.1,0,0.1,0,0.2v4.2H18c-0.1,0-0.1,0-0.2,0
						c-0.1,0-0.1,0-0.2,0c-0.1,0-0.1,0-0.1,0.1c0,0-0.1,0.1-0.1,0.1c0,0-0.1,0.1-0.1,0.1c0,0-0.1,0.1-0.1,0.1c0,0.1,0,0.1,0,0.2
						c0,0.1,0,0.1,0,0.2v0c0,0.1,0,0.1,0,0.2c0,0.1,0,0.1,0,0.2c0,0.1,0,0.1,0.1,0.1c0,0,0.1,0.1,0.1,0.1c0,0,0.1,0.1,0.1,0.1
						c0,0,0.1,0.1,0.1,0.1c0.1,0,0.1,0,0.2,0c0.1,0,0.1,0,0.2,0h5c0.1,0,0.1,0,0.2,0c0.1,0,0.1,0,0.2,0c0.1,0,0.1,0,0.1-0.1
						c0,0,0.1-0.1,0.1-0.1c0,0,0.1-0.1,0.1-0.1c0,0,0.1-0.1,0.1-0.1c0-0.1,0-0.1,0-0.2c0-0.1,0-0.1,0-0.2v-5c0-0.1,0-0.1,0-0.2
						s0-0.1,0-0.2c0-0.1,0-0.1-0.1-0.1c0,0-0.1-0.1-0.1-0.1c0,0-0.1-0.1-0.1-0.1c0,0-0.1-0.1-0.1-0.1c-0.1,0-0.1,0-0.2,0
						C23.2-2.2,23.1-2.2,23.1-2.2z"/>
					<path id="Rectangle" class="st4" d="M16.4,20.4L16.4,20.4c0,0.1,0,0.1,0.1,0.2c0,0.1,0,0.1,0,0.2c0,0.1,0,0.1,0,0.2
						c0,0.1,0,0.1,0,0.2s0,0.1-0.1,0.1c0,0-0.1,0.1-0.1,0.1c0,0-0.1,0.1-0.1,0.1s-0.1,0.1-0.1,0.1l-0.8,0.3l-0.7-1.5l0.8-0.3
						c0.1,0,0.1,0,0.2,0c0.1,0,0.1,0,0.2,0c0.1,0,0.1,0,0.2,0s0.1,0,0.2,0c0.1,0,0.1,0,0.1,0.1c0,0,0.1,0.1,0.1,0.1
						c0,0,0.1,0.1,0.1,0.1C16.3,20.3,16.4,20.4,16.4,20.4L16.4,20.4z"/>
				</g>
			</g>
		</g>
	</g>
</g>
</svg>
