<!-- Generated by IcoMoon.io -->
<svg version="1.1" xmlns="http://www.w3.org/2000/svg" width="18" height="18" viewBox="0 0 18 18">
<title>search</title>
<path fill="#292929" d="M12.031 11.892c-0.026 0.019-0.050 0.041-0.074 0.065s-0.045 0.048-0.065 0.074c-0.944 0.91-2.227 1.468-3.641 1.468-1.45 0-2.762-0.586-3.713-1.538s-1.538-2.263-1.538-3.713 0.586-2.762 1.538-3.713 2.263-1.538 3.713-1.538 2.762 0.586 3.713 1.538 1.538 2.263 1.538 3.713c0 1.414-0.559 2.698-1.469 3.642zM16.28 15.22l-2.756-2.756c0.923-1.155 1.476-2.62 1.476-4.213 0-1.864-0.756-3.552-1.977-4.773s-2.909-1.977-4.773-1.977-3.552 0.756-4.773 1.977-1.977 2.909-1.977 4.773 0.756 3.552 1.977 4.773 2.909 1.977 4.773 1.977c1.594 0 3.059-0.553 4.213-1.476l2.756 2.756c0.293 0.293 0.768 0.293 1.061 0s0.293-0.768 0-1.061z"></path>
</svg>
