<svg id="sign-in" data-name="sign-in" xmlns="http://www.w3.org/2000/svg" viewBox="0 0 83.28 104.16"><defs><style>.cls-1{fill:#231f20;stroke:#231f20;stroke-miterlimit:10;}</style></defs><title>User Icon - Signed In</title><path class="cls-1" d="M264.22,252.34a18.4,18.4,0,0,1-11.16,4.08h-7a18.4,18.4,0,0,1-11.15-4.08,34.58,34.58,0,0,0-26.47,30.75,55,55,0,0,0,82.25,0A34.58,34.58,0,0,0,264.22,252.34Z" transform="translate(-207.92 -197.92)"/><path class="cls-1" d="M38.14.5h7a18,18,0,0,1,18,18v12a23,23,0,0,1-23,23h-2a18,18,0,0,1-18-18v-17a18,18,0,0,1,18-18Z"/></svg>
