<?xml version="1.0" encoding="utf-8"?>
<!-- Generator: Adobe Illustrator 25.0.0, SVG Export Plug-In . SVG Version: 6.00 Build 0)  -->
<svg version="1.1" id="Layer_1" xmlns="http://www.w3.org/2000/svg" xmlns:xlink="http://www.w3.org/1999/xlink" x="0px" y="0px"
	 viewBox="0 0 16.3 9" style="enable-background:new 0 0 16.3 9;" xml:space="preserve">
<style type="text/css">
	.st0{fill:#292929;}
</style>
<desc>Created with Lunacy</desc>
<g id="Group-Copy-3" transform="matrix(0.7071067 0.7071068 0.7071068 -0.7071067 0 9.192383)">
	<path id="Line-5" class="st0" d="M-5.9,6.7V5.9l11.5,0l0,1.7l-10.5,0c-0.1,0-0.1,0-0.2,0c-0.1,0-0.1,0-0.2-0.1
		c-0.1,0-0.1-0.1-0.2-0.1c-0.1,0-0.1-0.1-0.2-0.1c0,0-0.1-0.1-0.1-0.2c0-0.1-0.1-0.1-0.1-0.2c0-0.1,0-0.1-0.1-0.2
		C-5.9,6.8-5.9,6.7-5.9,6.7L-5.9,6.7z"/>
	<path id="Line-5-Copy" class="st0" d="M3.9,5.9h1.7l0,11.5H4.9c-0.1,0-0.1,0-0.2,0s-0.1,0-0.2-0.1c-0.1,0-0.1-0.1-0.2-0.1
		c-0.1,0-0.1-0.1-0.2-0.1c0,0-0.1-0.1-0.1-0.2C4,17,4,16.9,3.9,16.8c0-0.1,0-0.1-0.1-0.2c0-0.1,0-0.1,0-0.2L3.9,5.9z"/>
</g>
</svg>
