
<?xml version="1.0" encoding="UTF-8"?>
<svg width="30px" height="27px" viewBox="0 0 30 27" version="1.1" xmlns="http://www.w3.org/2000/svg" xmlns:xlink="http://www.w3.org/1999/xlink">
    <title>Icon_Cart_Line (1)</title>
    <g id="Page-1" stroke="none" stroke-width="1" fill="none" fill-rule="evenodd">
        <g id="Artboard" transform="translate(0.000000, 1.000000)" stroke="#000C21" stroke-width="2.63414634">
            <g id="Icon_Cart_Line-(1)" transform="translate(-0.000000, 1.000000)">
                <polyline id="Stroke-1" points="0 -1.10422182e-15 4.7056928 -1.10422182e-15 8.14525947 17.9171128 23.294933 17.9171128"></polyline>
                <path d="M25.8269997,20.4584971 C25.8269997,21.8620187 24.6934045,23 23.2949161,23 C21.8965963,23 20.7630011,21.8620187 20.7630011,20.4584971 C20.7630011,19.0548063 21.8965963,17.9169943 23.2949161,17.9169943 C24.6934045,17.9169943 25.8269997,19.0548063 25.8269997,20.4584971 Z" id="Stroke-3"></path>
                <path d="M12.1278997,20.4584971 C12.1278997,21.8620187 10.9943046,23 9.59581614,23 C8.19749626,23 7.06390117,21.8620187 7.06390117,20.4584971 C7.06390117,19.0548063 8.19749626,17.9169943 9.59581614,17.9169943 C10.9943046,17.9169943 12.1278997,19.0548063 12.1278997,20.4584971 Z" id="Stroke-5"></path>
                <polyline id="Stroke-7" points="7.14503839 12.7070912 26.1689667 12.7070912 27.972973 3.43095269 5.63425272 3.43095269"></polyline>
            </g>
        </g>
    </g>
</svg>