<svg width="16" height="16" viewBox="0 0 16 16" fill="none" xmlns="http://www.w3.org/2000/svg">
    <path d="M0.932384 13.5343L7.43442 1.83426C7.66146 1.42572 8.21897 1.39168 8.50108 1.73212L8.57074 1.83426L15.0728 13.5343C15.295 13.9342 15.0452 14.4187 14.6156 14.4908L14.5046 14.5H1.50054C1.04302 14.5 0.740892 14.0463 0.886489 13.6357L0.932384 13.5343L7.43442 1.83426L0.932384 13.5343ZM8.00258 3.48811L2.6054 13.2H13.3998L8.00258 3.48811ZM8.00258 10.44C8.44994 10.44 8.8126 10.8027 8.8126 11.25C8.8126 11.6974 8.44994 12.0601 8.00258 12.0601C7.55522 12.0601 7.19257 11.6974 7.19257 11.25C7.19257 10.8027 7.55522 10.44 8.00258 10.44ZM8.00209 6.70333C8.32118 6.70358 8.5864 6.93372 8.64121 7.23699L8.65159 7.35383L8.6506 8.6505C8.65032 9.00948 8.35908 9.30027 8.0001 9.3C7.681 9.29976 7.41578 9.06961 7.36098 8.76635L7.3506 8.6495L7.35159 7.35284C7.35186 6.99385 7.6431 6.70306 8.00209 6.70333Z" fill="#CD163F"/>
    </svg>
    