<?xml version="1.0" encoding="utf-8"?>
<!-- Generator: Adobe Illustrator 25.0.0, SVG Export Plug-In . SVG Version: 6.00 Build 0)  -->
<svg version="1.1" id="Layer_1" xmlns="http://www.w3.org/2000/svg" xmlns:xlink="http://www.w3.org/1999/xlink" x="0px" y="0px"
	 viewBox="0 0 36 43" style="enable-background:new 0 0 36 43;" xml:space="preserve">
<style type="text/css">
	.st0{fill:#BD0017;}
	.st1{fill:#FFFFFF;}
	.st2{fill-rule:evenodd;clip-rule:evenodd;fill:#60605B;}
	.st3{opacity:0.102;}
</style>
<desc>Created with Lunacy</desc>
<g id="Elements_x2F_Controls_x2F_Pin-Big">
	<g id="Pin-Big" transform="translate(-1 -1)">
		<path id="fill" class="st0" d="M1.2,18.9c0,9.7,17.6,24.5,17.6,24.5s17.6-14.7,17.6-24.5c0-9.7-7.9-17.6-17.6-17.6
			S1.3,9.1,1.2,18.9"/>
		<path id="fill_1_" class="st1" d="M11.1,11.1c-4.3,4.3-4.3,11.2,0,15.4c4.3,4.3,11.2,4.3,15.4,0c4.3-4.3,4.3-11.2,0-15.4
			C22.3,6.9,15.4,6.9,11.1,11.1L11.1,11.1"/>
		<path id="_x2E_5-stroke" class="st2" d="M26.9,10.8c-4.5-4.5-11.7-4.5-16.1,0c-4.5,4.5-4.5,11.7,0,16.1c4.5,4.5,11.7,4.5,16.1,0
			C31.4,22.5,31.4,15.2,26.9,10.8z M26.2,26.2c-4.1,4.1-10.6,4.1-14.7,0c-4.1-4.1-4.1-10.6,0-14.7c4.1-4.1,10.6-4.1,14.7,0
			C30.3,15.6,30.3,22.1,26.2,26.2z"/>
		<path id="fill_2_" class="st3" d="M24.6,38c0,0-11.6,1.5-21.9-13.7c0,0,4.9,9.6,16.2,19L24.6,38z"/>
		<path id="_x2E_5pt-stroke" class="st2" d="M18.5,43.7c0.2,0.2,0.5,0.2,0.6,0c0.1-0.1,0.4-0.3,0.8-0.7c0.6-0.5,1.3-1.1,2-1.8
			c2.1-1.9,4.2-4,6.1-6.2c2.5-2.7,4.5-5.4,6-7.9c1.9-3.1,2.9-5.9,2.9-8.3c0-10-8.1-18.1-18.1-18.1c-10,0-18.1,8.1-18.1,18.1
			c0,2.4,1,5.2,2.9,8.3c1.5,2.5,3.6,5.2,6,7.9c1.9,2.2,4,4.2,6.1,6.2c0.7,0.7,1.4,1.3,2,1.8C18.1,43.4,18.4,43.6,18.5,43.7z
			 M21.3,40.5c-0.7,0.7-1.4,1.3-2,1.8c-0.2,0.1-0.3,0.3-0.4,0.4c-0.1-0.1-0.3-0.2-0.4-0.4c-0.6-0.5-1.3-1.1-2-1.8
			c-2-1.9-4.1-4-6-6.1C8,31.7,6,29.1,4.5,26.7c-1.8-3-2.7-5.6-2.7-7.8c0-9.4,7.7-17.1,17.1-17.1C28.3,1.8,36,9.4,36,18.9
			c0,2.2-1,4.8-2.8,7.8c-1.5,2.5-3.5,5.1-5.9,7.7C25.4,36.5,23.3,38.6,21.3,40.5z"/>
	</g>
	<g id="_x31_" transform="translate(7.5 10)">
	</g>
</g>
</svg>
