<?xml version="1.0" encoding="UTF-8"?>
<svg width="15px" height="8px" viewBox="0 0 15 8" version="1.1" xmlns="http://www.w3.org/2000/svg" xmlns:xlink="http://www.w3.org/1999/xlink">
    <title>Flag_of_Canada_(Pantone)</title>
    <g id="Page-1" stroke="none" stroke-width="1" fill="none" fill-rule="evenodd">
        <g id="europe" transform="translate(-318.000000, -35.000000)" fill-rule="nonzero">
            <g id="Flag_of_Canada_(Pantone)" transform="translate(318.000000, 35.000000)">
                <polygon id="Path" fill="#D52B1E" points="0 0 3.75 0 3.9046875 0.165 11.0953125 0.165 11.25 0 15 0 15 8 11.25 8 11.0953125 7.835 3.9046875 7.835 3.75 8 0 8"></polygon>
                <path d="M3.75,0 L11.25,0 L11.25,8 L3.75,8 L3.75,0 Z M7.640625,7.38333333 L7.5703125,5.945 C7.5682421,5.89708913 7.586643,5.85075956 7.62034994,5.81901633 C7.65405689,5.78727309 7.69943635,5.77353803 7.74375,5.78166667 L9.0859375,6.03333333 L8.9046875,5.5 C8.88960996,5.45649053 8.90217517,5.40756997 8.9359375,5.37833333 L10.40625,4.10833333 L10.075,3.94333333 C10.0287105,3.9200008 10.0059396,3.86356488 10.021875,3.81166667 L10.3125,2.85833333 L9.465625,3.05 C9.41832067,3.06052041 9.37061729,3.03403305 9.3515625,2.98666667 L9.1875,2.575 L8.5265625,3.33166667 C8.49552067,3.36659153 8.44660011,3.37548576 8.40646459,3.35350162 C8.36632907,3.33151748 8.34460177,3.28392605 8.353125,3.23666667 L8.671875,1.48333333 L8.1609375,1.79833333 C8.13669011,1.81349191 8.10763789,1.81725526 8.08069382,1.80872791 C8.05374975,1.80020055 8.03132299,1.78014495 8.01875,1.75333333 L7.5,0.666666667 L6.98125,1.75333333 C6.96867701,1.78014495 6.94625025,1.80020055 6.91930618,1.80872791 C6.89236211,1.81725526 6.86330989,1.81349191 6.8390625,1.79833333 L6.328125,1.48333333 L6.646875,3.23666667 C6.65539823,3.28392605 6.63367093,3.33151748 6.59353541,3.35350162 C6.55339989,3.37548576 6.50447933,3.36659153 6.4734375,3.33166667 L5.8125,2.575 L5.6484375,2.98666667 C5.62938271,3.03403305 5.58167933,3.06052041 5.534375,3.05 L4.6875,2.85833333 L4.978125,3.81166667 C4.99406035,3.86356488 4.97128953,3.9200008 4.925,3.94333333 L4.59375,4.10833333 L6.0640625,5.37833333 C6.09782483,5.40756997 6.11039004,5.45649053 6.0953125,5.5 L5.9140625,6.03333333 L7.25625,5.78166667 C7.30056365,5.77353803 7.34594311,5.78727309 7.37965006,5.81901633 C7.413357,5.85075956 7.4317579,5.89708913 7.4296875,5.945 L7.359375,7.38333333 L7.640625,7.38333333 Z" id="Shape" fill="#FFFFFF"></path>
            </g>
        </g>
    </g>
</svg>