<?xml version="1.0" standalone="no"?>
<!DOCTYPE svg PUBLIC "-//W3C//DTD SVG 1.1//EN" "http://www.w3.org/Graphics/SVG/1.1/DTD/svg11.dtd" >
<svg xmlns="http://www.w3.org/2000/svg">
<metadata>Generated by IcoMoon</metadata>
<defs>
<font id="icomoon" horiz-adv-x="1024">
<font-face units-per-em="1024" ascent="960" descent="-64" />
<missing-glyph horiz-adv-x="1024" />
<glyph unicode="&#x20;" horiz-adv-x="512" d="" />
<glyph unicode="&#xe900;" glyph-name="hamburger" horiz-adv-x="1463" d="M0 15.927v48.146q0 3.623 1.386 6.97t3.948 5.909 5.909 3.948 6.97 1.386h1373.857q6.524 0 12.924-1.272 6.393-1.272 12.42-3.768 6.020-2.496 11.447-6.119 5.42-3.623 10.035-8.234 4.608-4.611 8.229-10.034 3.628-5.422 6.122-11.447t3.767-12.421 1.273-12.917v-48.146q0-3.623-1.39-6.97-1.382-3.347-3.942-5.908-2.567-2.561-5.91-3.948-3.35-1.386-6.971-1.386h-1373.861q-6.521 0-12.917 1.272t-12.421 3.768-11.447 6.118-10.034 8.234-8.234 10.034-6.119 11.448-3.768 12.42-1.272 12.918v0zM0 406.784v48.146q0 6.521 1.272 12.917t3.768 12.421 6.119 11.447 8.234 10.034 10.034 8.234 11.447 6.119 12.421 3.768 12.917 1.272h1373.861q3.621 0 6.971-1.386 3.343-1.386 5.91-3.948 2.56-2.562 3.942-5.909 1.39-3.347 1.39-6.97v-48.146q0-6.521-1.273-12.918t-3.767-12.42q-2.494-6.026-6.122-11.448-3.621-5.422-8.229-10.034-4.615-4.611-10.035-8.234-5.427-3.623-11.447-6.118-6.027-2.496-12.42-3.768-6.4-1.272-12.924-1.272h-1373.857q-3.623 0-6.97 1.386t-5.909 3.948-3.948 5.908-1.386 6.97zM0 893.641v48.146q0 3.623 1.386 6.97t3.948 5.909 5.909 3.948 6.97 1.386h1373.857q6.524 0 12.924-1.272 6.393-1.272 12.42-3.768 6.020-2.496 11.447-6.119 5.42-3.623 10.035-8.234 4.608-4.611 8.229-10.034 3.628-5.422 6.122-11.447t3.767-12.421 1.273-12.917v-48.146q0-3.623-1.39-6.97-1.382-3.347-3.942-5.908-2.567-2.561-5.91-3.948-3.35-1.386-6.971-1.386h-1373.861q-6.521 0-12.917 1.272t-12.421 3.768-11.447 6.118q-5.422 3.623-10.034 8.234t-8.234 10.034-6.119 11.448-3.768 12.42-1.272 12.918v0z" />
<glyph unicode="&#xe901;" glyph-name="minus" horiz-adv-x="9216" d="M0 511.488v321.024q0 25.359 9.704 48.787t27.636 41.36 41.36 27.636 48.787 9.704h8641.024q44.083 0 87.296-8.598t83.968-25.465q40.704-16.866 77.363-41.353 36.608-24.486 67.789-55.651t55.654-67.811 41.37-77.365q16.845-40.718 25.446-83.945t8.602-87.301v-321.024q0-25.359-9.728-48.788-9.677-23.429-27.597-41.359-17.971-17.93-41.37-27.638-23.45-9.702-48.794-9.702h-8641.024q-44.074 0-87.301 8.596-43.227 8.602-83.945 25.467t-77.365 41.354q-36.646 24.484-67.811 55.649t-55.651 67.809q-24.486 36.649-41.353 77.363-16.866 40.719-25.465 83.948t-8.598 87.301z" />
<glyph unicode="&#xe902;" glyph-name="check" d="M513.862-64c-282.996 0-513.862 230.865-513.862 510.138 0 282.996 230.865 513.862 513.862 513.862s513.862-230.865 513.862-513.862c-3.724-279.273-234.589-510.138-513.862-510.138zM513.862 829.673c-212.247 0-383.535-171.287-383.535-383.535 0-208.524 171.287-379.811 383.535-379.811 208.524 0 379.811 171.287 379.811 379.811 0 212.247-171.287 383.535-379.811 383.535zM458.007 345.6l175.011 234.589c0 3.724 3.724 3.724 3.724 3.724s3.724 3.724 7.447 3.724c3.724 0 3.724 3.724 7.447 3.724s3.724 0 7.447 0 3.724 0 7.447 0 3.724 0 7.447 0 3.724 0 7.447-3.724c3.724 0 3.724-3.724 7.447-3.724l22.342-14.895-215.971-290.444c0 0 0-3.724-3.724-3.724 0 0 0-3.724-3.724-3.724 0 0-3.724 0-3.724-3.724 0 0-3.724 0-3.724-3.724 0 0-3.724 0-3.724 0s-3.724 0-3.724 0c0 0-3.724 0-3.724 0s-3.724 0-3.724 0c0 0-3.724 0-3.724 0s-3.724 0-3.724 0-3.724 0-3.724 0-3.724 0-3.724 0c0 0-3.724 0-3.724 0s-3.724 0-3.724 3.724c0 0-3.724 0-3.724 3.724s-3.724 0-3.724 3.724l-145.222 145.222 18.618 18.618c0 0 3.724 3.724 7.447 3.724s3.724 3.724 7.447 3.724 3.724 0 7.447 3.724 3.724 0 7.447 0 3.724 0 7.447 0 3.724 0 7.447-3.724c3.724 0 3.724-3.724 7.447-3.724s3.724-3.724 7.447-3.724l89.367-93.091z" />
<glyph unicode="&#xe903;" glyph-name="plus" d="M0 448v34.133c0 0 0 5.689 0 5.689s0 5.689 5.689 5.689c0 0 5.689 0 5.689 5.689s5.689 0 5.689 0h961.422c5.689 0 5.689 0 11.378 0s5.689 0 11.378 0 5.689 0 11.378-5.689c0 0 5.689-5.689 5.689-5.689s5.689-5.689 5.689-5.689 5.689-5.689 5.689-11.378 0-5.689 0-11.378 0-5.689 0-11.378v-34.133c0 0 0-5.689 0-5.689s0-5.689-5.689-5.689c0 0-5.689 0-5.689-5.689 0 0-5.689 0-5.689 0h-961.422c-5.689 0-5.689 0-11.378 0s-5.689 0-11.378 0-5.689 0-11.378 5.689c0 0-5.689 5.689-5.689 5.689s-5.689 5.689-5.689 5.689c0 0-5.689 5.689-5.689 11.378s0 5.689 0 11.378 0 5.689 0 11.378zM512 960h34.133c0 0 5.689 0 5.689 0s5.689 0 5.689-5.689c0 0 0-5.689 5.689-5.689s0-5.689 0-5.689v-961.422c0-5.689 0-5.689 0-11.378s0-5.689 0-11.378 0-5.689-5.689-11.378c0 0-5.689-5.689-5.689-5.689s-5.689-5.689-5.689-5.689-5.689-5.689-11.378-5.689-5.689 0-11.378 0-5.689 0-11.378 0h-34.133c0 0-5.689 0-5.689 0s-5.689 0-5.689 5.689c0 0 0 5.689-5.689 5.689 0 0 0 5.689 0 5.689v961.422c0 5.689 0 5.689 0 11.378s0 5.689 0 11.378 0 5.689 5.689 11.378c0 0 5.689 5.689 5.689 5.689s5.689 5.689 5.689 5.689c0 0 5.689 5.689 11.378 5.689s5.689 0 11.378 0 5.689 0 11.378 0z" />
<glyph unicode="&#xe904;" glyph-name="arrow-down" horiz-adv-x="1855" d="M64.362 927.819l-64.362-64.362 925.21-925.21 136.77 136.77-844.757 844.757c-8.045 8.045-8.045 8.045-16.091 16.091s-8.045 8.045-24.136 8.045c-8.045 8.045-16.091 0-24.136 8.045s-16.091 0-24.136 8.045c0 0-16.091 0-24.136-8.045s-16.091 0-24.136-8.045c-8.045-8.045-8.045-8.045-24.136-8.045 16.091 0 8.045-8.045 8.045-8.045v0zM788.44 75.017l136.77-136.77 925.21 925.21-56.317 56.317c-8.045 8.045-8.045 8.045-16.091 16.091s-8.045 8.045-24.136 8.045c-8.045 8.045-16.091 0-24.136 8.045s-16.091 0-24.136 8.045c0 0-16.091 0-24.136-8.045 8.045 8.045 0 0-16.091 0-8.045-8.045-8.045-8.045-24.136-8.045-8.045-8.045-8.045-8.045-16.091-16.091l-836.712-852.802z" />
<glyph unicode="&#xe905;" glyph-name="location" d="M861.091 521.926c0 190.53-162.909 344.984-349.091 344.984s-349.090-154.454-349.090-344.984c-0.001-295.7 349.090-492.834 349.090-492.834s349.091 197.134 349.091 492.834zM610.773 436.92c-54.511-54.548-142.932-54.576-197.48-0.064-54.549 54.523-54.575 142.932 0 197.544 54.548 54.523 142.969 54.485 197.48-0.064 54.482-54.523 54.482-142.881 0-197.416z" />
<glyph unicode="&#xe906;" glyph-name="Search" d="M835.477 124.523c18.181 18.176 18.181 47.644 0 65.825l-110.639 110.639c40.578 54.221 64.605 121.54 64.605 194.473 0 179.44-145.464 324.904-324.903 324.904s-324.904-145.465-324.904-324.904c0-179.439 145.465-324.903 324.904-324.903 72.933 0 140.252 24.027 194.473 64.605l110.639-110.639c18.181-18.181 47.649-18.181 65.825 0zM696.353 495.459c0-50.823-16.286-98.931-46.047-138.699l-20.145-26.92-26.92-20.145c-39.768-29.761-87.876-46.047-138.699-46.047-128.027 0-231.814 103.785-231.814 231.812s103.787 231.814 231.814 231.814c128.027 0 231.812-103.787 231.812-231.814z" />
<glyph unicode="&#xe907;" glyph-name="close" d="M38.793 921.21l34.48 34.48c0 0 4.31 4.31 4.31 4.31s4.31 4.31 8.62 0c0 0 4.31-4.31 8.62 0s4.31-4.31 4.31-4.31l896.477-896.477c4.31-4.31 4.31-4.31 8.62-8.62s4.31-4.31 4.31-12.93c4.31-4.31 0-8.62 4.31-12.93s0-8.62 4.31-12.93c0 0 0-8.62-4.31-12.93s0-8.62-4.31-12.93c-4.31-4.31-4.31-4.31-4.31-12.93s-4.31-4.31-8.62-8.62l-34.48-34.48c0 0-4.31-4.31-4.31-4.31s-4.31-4.31-8.62 0c0 0-4.31 4.31-8.62 0 0 0-4.31 4.31-4.31 4.31l-896.477 896.477c-4.31 4.31-4.31 4.31-8.62 8.62s-4.31 4.31-4.31 12.93c-4.31 4.31 0 8.62-4.31 12.93s0 8.62-4.31 12.93c0 0 0 8.62 4.31 12.93s0 8.62 4.31 12.93c4.31 4.31 4.31 4.31 4.31 12.93 4.31 4.31 4.31 4.31 8.62 8.62zM986.989 921.21l34.48-34.48c0 0 4.31-4.31 4.31-4.31s4.31-4.31 0-8.62c0 0-4.31-4.31 0-8.62 0 0-4.31-4.31-4.31-4.31l-896.477-896.477c-4.31-4.31-4.31-4.31-8.62-8.62s-4.31-4.31-12.93-4.31c-4.31-4.31-8.62 0-12.93-4.31s-8.62 0-12.93-4.31c0 0-8.62 0-12.93 4.31s-8.62 0-12.93 4.31c-4.31 4.31-4.31 4.31-12.93 4.31-4.31 4.31-4.31 4.31-8.62 8.62l-34.48 34.48c0 0-4.31 4.31-4.31 4.31s-4.31 4.31 0 8.62c0 0 4.31 4.31 0 8.62 0 0 4.31 4.31 4.31 4.31l896.477 896.477c4.31 4.31 4.31 4.31 8.62 8.62s4.31 4.31 12.93 4.31 12.93 4.31 17.24 8.62c4.31 4.31 8.62 0 12.93 4.31 0 0 8.62 0 12.93-4.31s8.62 0 12.93-4.31c4.31-4.31 4.31-4.31 12.93-4.31-4.31-4.31 0-8.62 4.31-12.93z" />
<glyph unicode="&#xe908;" d="M839.11 449.174c0 178.891-145.019 323.909-323.877 323.909-178.891 0-323.909-145.018-323.909-323.909 0-95.965 41.968-181.947 108.316-241.24 37.807 80.749 120.117 136.728 215.593 136.728 95.477 0 177.786-55.979 215.592-136.728 66.318 59.293 108.285 145.275 108.285 241.24z" />
<glyph unicode="&#xe909;" d="M515.236 344.667c-95.508 0-177.786-56.011-215.593-136.728 57.279-51.233 132.665-82.668 215.593-82.668 82.895 0 158.28 31.435 215.593 82.668-37.806 80.75-120.118 136.728-215.593 136.728z" />
<glyph unicode="&#xe90a;" d="M749.278 222.294c-42.629 95.245-134.543 157.439-237.278 157.439-102.739 0-194.633-62.198-237.278-157.436-3.282-7.33-1.58-16.045 4.187-21.442 63.912-59.797 146.012-93.474 233.090-93.474 87.044 0 169.141 33.675 233.086 93.47 5.772 5.395 7.475 14.11 4.192 21.442zM312.419 219.086c39.079 75.447 115.076 123.98 199.581 123.98 84.502 0 160.512-48.528 199.581-123.975-56.003-48.162-125.796-75.041-199.581-75.041-73.815 0-143.61 26.879-199.581 75.037z" />
<glyph unicode="&#xe90b;" d="M511.61 789.333c-188.29 0-340.943-152.664-340.943-340.976s152.653-340.974 340.943-340.974c188.318 0 340.976 152.658 340.976 340.974s-152.658 340.976-340.976 340.976zM511.61 141.517c-169.438 0-306.81 137.38-306.81 306.841s137.372 306.842 306.81 306.842c169.466 0 306.843-137.377 306.843-306.842s-137.376-306.841-306.843-306.841z" />
<glyph unicode="&#xe90c;" d="M337.333 462.729c0-98.206 79.644-177.883 177.883-177.883s177.885 79.677 177.885 177.883c0 98.239-79.646 177.916-177.885 177.916s-177.883-79.677-177.883-177.916z" />
<glyph unicode="&#xe90d;" d="M512 662.651c-113.099 0-204.8-91.724-204.8-204.834 0-113.082 91.707-204.8 204.8-204.8s204.8 91.718 204.8 204.8c0 113.11-91.701 204.834-204.8 204.834zM512 288.874c-93.288 0-168.942 75.664-168.942 168.943 0 93.308 75.649 168.976 168.942 168.976s168.943-75.668 168.943-168.976c0-93.279-75.654-168.943-168.943-168.943z" />
<glyph unicode="&#xe90e;" d="M428.271 406.512c-3.916 8.496-0.416 18.66 7.816 22.701s18.080 0.43 21.996-8.067c10.924-23.702 31.507-38.403 53.886-38.403 22.424 0 43.026 14.714 53.942 38.454 3.909 8.5 13.754 12.12 21.989 8.086s11.744-14.194 7.835-22.694c-16.171-35.166-48.027-57.918-83.767-57.918-35.691 0-67.517 22.731-83.698 57.84z" />
<glyph unicode="&#xe90f;" glyph-name="play" d="M892.464 500.665l-694.021 447.277c-41.173 22.176-88.337 19.874-88.337-59.769v-880.744c0-72.773 50.599-84.281 88.337-59.768l694.059 447.277c28.531 29.226 28.531 76.537-0.038 105.728z" />
<glyph unicode="&#xe910;" glyph-name="pause" d="M170.78 960h-0.228q-8.379 0-16.717-0.821t-16.556-2.456-16.236-4.067-15.759-5.639-15.13-7.156-14.356-8.605-13.443-9.97-12.402-11.24-11.24-12.401-9.97-13.444-8.605-14.356-7.156-15.13-5.639-15.759-4.067-16.236-2.456-16.556q-0.821-8.339-0.821-16.717v-682.894q0-8.379 0.821-16.717t2.456-16.556 4.067-16.236 5.639-15.758q3.206-7.741 7.156-15.13t8.605-14.356 9.97-13.443 11.24-12.402 12.401-11.24 13.444-9.97q6.967-4.656 14.356-8.605t15.13-7.155q7.741-3.207 15.759-5.639t16.236-4.068q8.218-1.634 16.556-2.455t16.717-0.821h0.228q8.379 0 16.717 0.821t16.556 2.455 16.236 4.068q8.018 2.431 15.758 5.639 7.741 3.206 15.13 7.155t14.356 8.605q6.967 4.655 13.444 9.97 6.476 5.316 12.401 11.24t11.24 12.402q5.316 6.476 9.97 13.443 4.656 6.967 8.605 14.356t7.157 15.13q3.206 7.74 5.638 15.758 2.433 8.018 4.068 16.236t2.455 16.556q0.821 8.339 0.821 16.717v682.894q0 8.379-0.821 16.717t-2.455 16.556q-1.635 8.218-4.068 16.236-2.431 8.018-5.638 15.759t-7.157 15.13-8.605 14.356-9.97 13.444-11.24 12.401q-5.924 5.925-12.401 11.24t-13.444 9.97-14.356 8.605-15.13 7.156-15.758 5.639-16.236 4.067-16.556 2.456q-8.339 0.821-16.717 0.821zM853.447 960h-0.228q-8.379 0-16.717-0.821t-16.556-2.456-16.236-4.067-15.758-5.639-15.13-7.156-14.356-8.605-13.444-9.97q-6.476-5.315-12.401-11.24-5.926-5.925-11.24-12.401-5.316-6.477-9.97-13.444-4.656-6.967-8.605-14.356t-7.157-15.13q-3.206-7.741-5.638-15.759t-4.068-16.236q-1.634-8.218-2.455-16.556t-0.821-16.717v-682.894q0-8.379 0.821-16.717t2.455-16.556 4.068-16.236q2.431-8.018 5.638-15.758t7.157-15.13q3.949-7.39 8.605-14.356 4.655-6.967 9.97-13.443t11.24-12.402q5.924-5.924 12.401-11.24t13.444-9.97q6.967-4.656 14.356-8.605t15.13-7.155q7.74-3.207 15.758-5.639t16.236-4.068q8.218-1.634 16.556-2.455t16.717-0.821h0.228q8.379 0 16.717 0.821t16.556 2.455 16.236 4.068q8.018 2.431 15.758 5.639 7.741 3.206 15.13 7.155t14.356 8.605q6.967 4.655 13.443 9.97t12.402 11.24 11.24 12.402q5.316 6.476 9.97 13.443 4.656 6.967 8.605 14.356t7.155 15.13q3.207 7.74 5.639 15.758t4.068 16.236q1.634 8.218 2.455 16.556t0.821 16.717v682.894q0 8.379-0.821 16.717t-2.455 16.556-4.068 16.236q-2.431 8.018-5.639 15.759-3.206 7.741-7.155 15.13t-8.605 14.356q-4.655 6.967-9.97 13.444t-11.24 12.401-12.402 11.24q-6.476 5.315-13.443 9.97t-14.356 8.605-15.13 7.156-15.758 5.639-16.236 4.067-16.556 2.456q-8.339 0.821-16.717 0.821z" />
<glyph unicode="&#xe911;" glyph-name="open-link" d="M576 736v-19.2c0-3.2-3.2-6.4-6.4-6.4-48 0-313.6 0-313.6 0-3.2-3.2-3.2-3.2-3.2-6.4v-512c0-3.2 3.2-3.2 3.2-3.2h512c3.2 0 3.2 3.2 3.2 3.2v345.6c0 3.2 3.2 6.4 6.4 6.4h22.4c16 0 28.8-12.8 28.8-28.8 0-83.2 0-323.2 0-323.2 0-32-25.6-60.8-60.8-60.8h-512c-32 0-60.8 25.6-60.8 60.8v512c0 32 28.8 60.8 60.8 60.8h291.2c16 0 28.8-12.8 28.8-28.8zM734.776 806.839v54.306c104.086 0 162.917 0 162.917 0 13.576 0 27.153-13.576 27.153-27.153v-108.612c2.263-29.416 2.263-52.043 2.263-52.043h-54.306v135.764l-138.027-2.263zM870.54 802.314v0c2.263-2.263 2.263-2.263 4.525-4.525s2.263-2.263 2.263-6.788c2.263-2.263 2.263-2.263 2.263-6.788 0 0 0-4.525 0-4.525s0-4.525 0-4.525c0 0 0-4.525-2.263-6.788-2.263 2.263-2.263 2.263-4.525 0s-2.263-2.263-4.525-4.525l-405.031-400.505c-2.263-2.263-2.263-2.263-4.525-4.525s-2.263-2.263-6.788-2.263c-2.263-2.263-2.263-2.263-6.788-2.263s0 0-2.263 2.263c0 0-4.525 0-4.525 0s-4.525 0-6.788 2.263c-2.263 2.263-2.263 2.263-4.525 4.525-2.263-2.263-4.525 0-4.525 0l-13.576 13.576c0 0-2.263 2.263-2.263 2.263s-2.263 2.263 0 4.525 2.263 2.263 0 4.525 2.263 2.263 2.263 2.263l423.133 414.082c2.263 2.263 2.263 2.263 4.525 4.525s2.263 2.263 6.788 2.263c2.263 2.263 2.263 2.263 6.788 2.263 0 0 4.525 0 4.525 0s4.525 0 4.525 0c0 0 4.525 0 6.788-2.263s2.263-2.263 4.525-4.525c-2.263-2.263-2.263-2.263 0-4.525z" />
<glyph unicode="&#xe912;" glyph-name="locate" d="M512 823.467v0c0 0 3.413 0 0 0 3.413 0 6.827 0 6.827 0s3.413 0 3.413 0c0 0 3.413 0 3.413-3.413 0 0 0 0 3.413-3.413 0 0 0-3.413 0-3.413s0-3.413 0-3.413c0 0 0-3.413 0-3.413v-136.533c0 0 0-3.413 0-3.413s0-3.413 0-3.413c0 0 0-3.413 0-3.413s0-3.413-3.413-3.413c0 0 0 0-3.413-3.413 0 0-3.413 0-3.413 0s-3.413 0-3.413 0c0 0-3.413 0-3.413 0v0c0 0-3.413 0-3.413 0s-3.413 0-3.413 0c0 0-3.413 0-3.413 0s-3.413 0-3.413 3.413c0 0 0 0-3.413 3.413 0 0 0 3.413 0 3.413s0 3.413 0 3.413c0 0 0 3.413 0 3.413v136.533c0 0 0 3.413 0 3.413s0 3.413 0 3.413c0 0 0 3.413 0 3.413s0 3.413 3.413 3.413c0 0 0 0 3.413 3.413 0 0 3.413 0 3.413 0s3.413 0 6.827 0c-3.413 0 0 0 0 0zM512 243.2v0c0 0 3.413 0 0 0 3.413 0 6.827 0 6.827 0s3.413 0 3.413 0c0 0 3.413 0 3.413-3.413 0 0 0 0 3.413-3.413 0 0 0-3.413 0-3.413s0-3.413 0-3.413c0 0 0-3.413 0-3.413v-136.533c0 0 0-3.413 0-3.413s0-3.413 0-3.413c0 0 0-3.413 0-3.413s0-3.413-3.413-3.413c0 0 0 0-3.413-3.413 0 0-3.413 0-3.413 0s-3.413 0-3.413 0c0 0-3.413 0-3.413 0v0c0 0-3.413 0-3.413 0s-3.413 0-3.413 0c0 0-3.413 0-3.413 0s-3.413 0-3.413 3.413c0 0 0 0-3.413 3.413 0 0 0 3.413 0 3.413s0 3.413 0 3.413 0 3.413 0 3.413v136.533c0 0 0 3.413 0 3.413s0 3.413 0 3.413c0 0 0 3.413 0 3.413s0 3.413 3.413 3.413c0 0 0 0 3.413 3.413 0 0 3.413 0 3.413 0s3.413 0 6.827 0c-3.413 0 0 0 0 0zM153.6 465.067h136.533c0 0 3.413 0 3.413 0s3.413 0 3.413 0c0 0 3.413 0 3.413 0s3.413 0 3.413-3.413c0 0 0 0 3.413-3.413 0 0 0-3.413 0-3.413s0-3.413 0-3.413c0 0 0-3.413 0-3.413v0c0 0 0-3.413 0-3.413s0-3.413 0-3.413c0 0 0-3.413 0-3.413s0-3.413-3.413-3.413c0 0 0 0-3.413-3.413 0 0-3.413 0-3.413 0s-3.413 0-3.413 0c0 0-3.413 0-3.413 0h-136.533c0 0-3.413 0-3.413 0s-3.413 0-3.413 0-3.413 0-3.413 0-3.413 0-3.413 3.413c0 0 0 0-3.413 3.413 0 0 0 3.413 0 3.413s0 3.413 0 3.413c0 0 0 3.413 0 3.413v0c0 0 0 3.413 0 3.413s0 3.413 0 3.413c0 0 0 3.413 0 3.413s0 3.413 3.413 3.413c0 0 0 0 3.413 3.413 0 0 3.413 0 3.413 0s3.413 0 6.827 0c-3.413 0 0 0 0 0zM733.867 465.067h136.533c0 0 3.413 0 3.413 0s3.413 0 3.413 0c0 0 3.413 0 3.413 0s3.413 0 3.413-3.413c0 0 0 0 3.413-3.413 0 0 0-3.413 0-3.413s0-3.413 0-3.413c0 0 0-3.413 0-3.413v0c0 0 0-3.413 0-3.413s0-3.413 0-3.413c0 0 0-3.413 0-3.413s0-3.413-3.413-3.413c0 0 0 0-3.413-3.413 0 0-3.413 0-3.413 0s-3.413 0-3.413 0c0 0-3.413 0-3.413 0h-136.533c0 0-3.413 0-3.413 0s-3.413 0-3.413 0c0 0-3.413 0-3.413 0s-3.413 0-3.413 3.413c0 0 0 0-3.413 3.413 0 0 0 3.413 0 3.413s0 3.413 0 3.413c0 0 0 3.413 0 3.413v0c0 0 0 3.413 0 3.413s0 3.413 0 3.413c0 0 0 3.413 0 3.413s0 3.413 3.413 3.413c0 0 0 0 3.413 3.413 0 0 3.413 0 3.413 0s3.413 0 6.827 0c-3.413 0 0 0 0 0zM802.133 448c0 160.427-129.707 290.133-290.133 290.133s-290.133-129.707-290.133-290.133c0-160.427 129.707-290.133 290.133-290.133s290.133 129.707 290.133 290.133zM256 448c0 139.947 116.053 256 256 256s256-116.053 256-256c0-139.947-116.053-256-256-256s-256 116.053-256 256zM512 362.667c-47.787 0-85.333 37.547-85.333 85.333s37.547 85.333 85.333 85.333 85.333-37.547 85.333-85.333-37.547-85.333-85.333-85.333z" />
<glyph unicode="&#xe913;" d="M153.566 721.067h682.735q1.676 0 3.321-0.327t3.198-0.969q1.55-0.642 2.942-1.574 1.396-0.932 2.58-2.118 1.188-1.186 2.12-2.581t1.574-2.945 0.969-3.195 0.328-3.323v-0.068q0-1.678-0.328-3.323t-0.969-3.195-1.574-2.945-2.12-2.581q-1.184-1.186-2.58-2.118-1.393-0.932-2.942-1.574-1.553-0.642-3.198-0.969t-3.321-0.327h-682.735q-1.678 0-3.323 0.327t-3.195 0.969-2.945 1.574-2.581 2.118-2.118 2.581-1.574 2.945-0.969 3.195-0.327 3.323v0.068q0 1.678 0.327 3.323t0.969 3.195 1.574 2.945 2.118 2.581 2.581 2.118 2.945 1.574 3.195 0.969 3.323 0.327z" />
<glyph unicode="&#xe914;" d="M631.467 618.667c-47.128 0-85.333 38.205-85.333 85.333s38.205 85.333 85.333 85.333c47.128 0 85.333-38.205 85.333-85.333s-38.205-85.333-85.333-85.333z" />
<glyph unicode="&#xe915;" d="M153.566 482.133h682.735q1.676 0 3.321-0.327t3.198-0.969q1.55-0.642 2.942-1.574 1.396-0.932 2.58-2.118 1.188-1.186 2.12-2.581t1.574-2.945 0.969-3.195 0.328-3.323v-0.068q0-1.678-0.328-3.323t-0.969-3.195-1.574-2.945-2.12-2.581q-1.184-1.186-2.58-2.118-1.393-0.932-2.942-1.574-1.553-0.642-3.198-0.969t-3.321-0.327h-682.735q-1.678 0-3.323 0.327t-3.195 0.969-2.945 1.574-2.581 2.118-2.118 2.581-1.574 2.945-0.969 3.195-0.327 3.323v0.068q0 1.678 0.327 3.323t0.969 3.195 1.574 2.945 2.118 2.581 2.581 2.118 2.945 1.574 3.195 0.969 3.323 0.327z" />
<glyph unicode="&#xe916;" d="M324.267 379.733c-47.128 0-85.333 38.205-85.333 85.333s38.205 85.333 85.333 85.333c47.128 0 85.333-38.205 85.333-85.333s-38.205-85.333-85.333-85.333z" />
<glyph unicode="&#xe917;" d="M153.566 243.2h682.735q1.676 0 3.321-0.327t3.198-0.969q1.55-0.642 2.942-1.574 1.396-0.932 2.58-2.118 1.188-1.186 2.12-2.581t1.574-2.945 0.969-3.195 0.328-3.323v-0.068q0-1.678-0.328-3.323t-0.969-3.195-1.574-2.945-2.12-2.581q-1.184-1.186-2.58-2.118-1.393-0.932-2.942-1.574-1.553-0.642-3.198-0.969t-3.321-0.327h-682.735q-1.678 0-3.323 0.327t-3.195 0.969-2.945 1.574-2.581 2.118-2.118 2.581-1.574 2.945-0.969 3.195-0.327 3.323v0.068q0 1.678 0.327 3.323t0.969 3.195 1.574 2.945 2.118 2.581 2.581 2.118 2.945 1.574 3.195 0.969 3.323 0.327z" />
<glyph unicode="&#xe918;" d="M631.467 140.8c-47.128 0-85.333 38.205-85.333 85.333s38.205 85.333 85.333 85.333c47.128 0 85.333-38.205 85.333-85.333s-38.205-85.333-85.333-85.333z" />
<glyph unicode="&#xe919;" horiz-adv-x="857" d="M5.949 534.799c0-231.472 419.149-582.489 419.149-582.489s420.054 351.018 420.054 582.489c0 231.543-187.702 419.245-419.245 419.245s-419.245-187.702-419.245-419.245z" />
<glyph unicode="&#xe91a;" horiz-adv-x="857" d="M241.471 718.403c-101.328-101.4-101.281-265.741 0.119-367.093 101.4-101.328 265.764-101.281 367.093 0.119 101.281 101.376 101.281 265.622 0 366.974-101.328 101.4-265.693 101.471-367.093 0.119l-0.119-0.119z" />
<glyph unicode="&#xe91b;" horiz-adv-x="857" d="M617.055 726.787c-106.027 106.004-277.929 106.004-383.957 0.001-106.001-106.026-106.001-277.926 0-383.953 106.028-105.979 277.928-105.979 383.955-0.002 105.979 106.029 105.979 277.929 0.002 383.955zM600.214 359.671c-96.723-96.678-253.551-96.678-350.278 0.005-96.7 96.723-96.701 253.547 0.002 350.274 96.726 96.703 253.553 96.702 350.278-0.001 96.678-96.723 96.678-253.552-0.002-350.278z" />
<glyph unicode="&#xe91c;" horiz-adv-x="857" d="M561.528 79.241c0 0-275.766-36.435-521.526 325.299 0 0 115.974-228.852 385.095-452.465l136.43 127.167z" />
<glyph unicode="&#xe91d;" horiz-adv-x="857" d="M417.453-56.818c4.42-3.703 10.857-3.705 15.281-0.010 3.348 2.798 9.568 8.113 18.253 15.712 14.441 12.636 30.525 27.098 47.84 43.158 49.471 45.885 98.945 95.403 145.148 146.744 58.466 64.967 107.432 128.176 143.793 187.98 44.92 73.88 69.289 140.388 69.289 198.032 0 238.119-193.031 431.152-431.152 431.152-238.118 0-431.151-193.033-431.151-431.152-0.178-57.611 23.998-124.125 68.714-198.011 36.252-59.902 85.14-123.216 143.55-188.287 46.027-51.276 95.31-100.728 144.59-146.542 17.251-16.036 33.273-30.477 47.659-43.094 8.649-7.585 14.848-12.89 18.184-15.684zM482.634 19.504c-17.141-15.898-33.054-30.208-47.328-42.698-3.934-3.443-7.349-6.401-10.2-8.856-2.836 2.446-6.227 5.394-10.138 8.823-14.217 12.469-30.070 26.755-47.144 42.629-48.79 45.356-97.578 94.313-143.084 145.008-57.493 64.050-105.512 126.238-140.898 184.708-42.657 70.485-65.435 133.153-65.273 185.646 0 225.003 182.371 407.373 407.337 407.373 224.968 0 407.338-182.371 407.338-407.338 0-52.495-22.964-115.171-65.824-185.661-35.497-58.38-83.594-120.47-141.145-184.42-45.682-50.762-94.66-99.788-143.641-145.215z" />
<glyph unicode="&#xe91e;" d="M513.177 299.697c-81.214 0-148.303 67.090-148.303 148.303s67.090 148.303 148.303 148.303c81.214 0 148.303-67.090 148.303-148.303s-67.090-148.303-148.303-148.303z" />
<glyph unicode="&#xe91f;" d="M919.246 621.021c-95.338 225.986-353.103 331.917-579.090 236.579s-331.917-356.634-236.579-582.621c95.338-225.986 356.634-331.917 582.621-236.579l24.717-52.966c-257.766-109.462-554.372 10.593-660.303 264.828-109.462 257.766 10.593 550.841 264.828 660.303s550.841-10.593 660.303-264.828l-56.497-24.717z" />
<glyph unicode="&#xe920;" d="M986.336 832.883v0c-3.531 0-3.531 0-7.062 0s-3.531 0-7.062 0-3.531 0-3.531-3.531c0 0-3.531-3.531-3.531-3.531s-3.531-3.531-3.531-3.531c0 0-3.531-3.531-3.531-3.531 0-3.531 0-3.531 0-7.062s0-3.531 0-7.062v-148.303h-151.834c-3.531 0-3.531 0-7.062 0s-3.531 0-7.062 0-3.531 0-3.531-3.531c0 0-3.531-3.531-3.531-3.531s-3.531-3.531-3.531-3.531c0 0-3.531-3.531-3.531-3.531 0-3.531 0-3.531 0-7.062s0-3.531 0-7.062v0c0-3.531 0-3.531 0-7.062s0-3.531 0-7.062 0-3.531 3.531-3.531c0 0 3.531-3.531 3.531-3.531s3.531-3.531 3.531-3.531c0 0 3.531-3.531 3.531-3.531 3.531 0 3.531 0 7.062 0s3.531 0 7.062 0h176.552c3.531 0 3.531 0 7.062 0s3.531 0 7.062 0 3.531 0 3.531 3.531c0 0 3.531 3.531 3.531 3.531s3.531 3.531 3.531 3.531c0 0 3.531 3.531 3.531 3.531 0 3.531 0 3.531 0 7.062s0 3.531 0 7.062v176.552c0 3.531 0 3.531 0 7.062s0 3.531 0 7.062 0 3.531-3.531 3.531c0 0-3.531 3.531-3.531 3.531s-3.531 3.531-3.531 3.531c0 0-3.531 3.531-3.531 3.531-3.531 0-3.531 0-7.062 0 0 0-3.531 0-3.531 0z" />
<glyph unicode="&#xe921;" d="M749.756 34.869v0c0-3.531 0-3.531 3.531-7.062 0-3.531 0-3.531 0-7.062s0-3.531 0-7.062 0-3.531 0-7.062 0-3.531-3.531-3.531c0 0-3.531-3.531-3.531-3.531s-3.531-3.531-3.531-3.531-3.531-3.531-3.531-3.531l-28.248-10.593-24.717 52.966 28.248 10.593c3.531 0 3.531 0 7.062 0s3.531 0 7.062 0 3.531 0 7.062 0 3.531 0 7.062 0 3.531 0 3.531-3.531c0 0 3.531-3.531 3.531-3.531s3.531-3.531 3.531-3.531c-7.062 3.531-3.531 0-3.531 0v0z" />
</font>
</defs>
</svg>
